<svg viewBox="0 0 96 96" xmlns="http://www.w3.org/2000/svg" xmlns:xlink="http://www.w3.org/1999/xlink" id="Icons_Chicken" overflow="hidden"><path d="M69.3 37.1 67.7 38.7C67.3 39.1 66.7 39.1 66.3 38.7L64 36.4 61.7 38.7C61.3 39.1 60.7 39.1 60.3 38.7L58.3 36.7C56.8 41 52.8 44 48 44L44 44C31.1 44 31.6 31.4 20.5 31 17.2 30.9 14.2 33.3 14 36.7 13.9 38.8 14.9 40.7 16.5 41.9 16.2 42.5 16 43.2 16 44 16 46.1 17.3 47.9 19.2 48.7 19.1 49.1 19 49.5 19 50 19 52 20.2 53.7 21.9 54.5 24.6 64 32.9 71.1 43 71.9L43 78C41.9 78 41 78.9 41 80 41 81.1 41.9 82 43 82L44.2 82 47.6 85.4C48 85.8 48.5 86 49 86 49.5 86 50 85.8 50.4 85.4 51.2 84.6 51.2 83.4 50.4 82.6L49.8 82 52 82C53.1 82 54 81.1 54 80 54 78.9 53.1 78 52 78L47 78 47 72C48.4 71.9 49.7 71.8 51 71.5L51 74C49.9 74 49 74.9 49 76L52 76C54.2 76 56 77.8 56 80 56 80.5 55.9 81 55.7 81.5 56.1 81.8 56.5 82 57 82 57.5 82 58 81.8 58.4 81.4 59.2 80.6 59.2 79.4 58.4 78.6L57.8 78 60 78C61.1 78 62 77.1 62 76 62 74.9 61.1 74 60 74L55 74 55 70.4C64.4 66.9 71 58.2 71 48 71 45.9 70.7 44 70.2 42 69.8 40.4 69.5 38.8 69.3 37.1Z" fill="#FFF7E1"/><path d="M76.9 21.6C76.6 19.3 75.4 17.3 73.7 16 74.4 15.6 74.9 14.8 75 14 75.1 13.6 75.1 13.1 74.9 12.7 74.6 11.9 74 11.3 73.2 11.1 72.2 10.9 71.4 11.2 70.8 11.8 70.3 10.8 69.3 10.1 68.1 10.1 66.9 10.1 65.9 10.8 65.4 11.8 64.8 11.2 63.9 10.9 63 11.1 62.2 11.3 61.5 11.9 61.3 12.7 61 13.1 61 13.6 61.1 14 61.1 14 61.1 14 61.1 14.1 60.6 14 60 14 59.3 14.4 58.6 14.9 58 15.7 58 16.6 58 16.8 58 16.9 58.1 17.1 58.3 18.1 58.9 19 59.9 19.4 59.3 20.4 59 21.7 59 23L59 33C59 33.5 59 34 58.9 34.5L61 36.6 63.3 34.3C63.7 33.9 64.3 33.9 64.7 34.3L67 36.6 69.1 34.5C69.1 33.6 69 32.8 69 31.9 72.4 31.5 75.2 29.3 76.4 26.2 79.4 25.4 82 26 82 26 80.9 24.2 78.4 22.6 76.9 21.6Z" fill="#FFF7E1"/></svg>