<svg viewBox="0 0 96 96" xmlns="http://www.w3.org/2000/svg" xmlns:xlink="http://www.w3.org/1999/xlink" id="Icons_SuburbanScene" overflow="hidden"><path d="M63 31.28 45 14.14 45 14.14 9 48.39 12.89 51.71 45 21.21 45 21.21 61.71 37.09C62.0145 35.1276 62.4454 33.1869 63 31.28Z" fill="#FFF7E1"/><path d="M79 75 79 54.81C85 53.73 89.5 47.91 89.5 39.62 89.5 30.42 80 11.4 77 11.4 74 11.4 64.5 30.4 64.5 39.62 64.5 47.91 69.05 53.73 75 54.81L75 75 71 75 71 56.66C65.7 54.17 62 48.4 61.56 41.2L45 26 19 49.87 19 75 13 75 13 73.51 14.69 73.51C15.389 73.5038 15.9869 73.0062 16.12 72.32L16.12 72.32C16.4065 71.0554 17.0283 69.8913 17.92 68.95 18.0447 68.8327 18.0506 68.6365 17.9333 68.5118 17.8506 68.424 17.7245 68.392 17.61 68.43 15.8628 68.8376 14.2654 69.7281 13 71L13 68.2C17.46 67.46 15 61.65 15 61.65 14.9159 61.5009 14.7268 61.4482 14.5777 61.5323 14.5285 61.5601 14.4878 61.6008 14.46 61.65L13.39 63.47 12.32 61.65C12.2609 61.5516 12.1548 61.491 12.04 61.49 11.9288 61.4944 11.8273 61.5545 11.77 61.65L10.7 63.47 9.59 61.65C9.49963 61.4981 9.30325 61.4483 9.15137 61.5386 9.10555 61.5659 9.06726 61.6042 9.04 61.65 9.04 61.65 6.55 67.45 11.04 68.2L11.04 70.94C9.77087 69.6939 8.18264 68.8219 6.45 68.42 6.28749 68.3661 6.11207 68.4542 6.0582 68.6167 6.02025 68.7312 6.05216 68.8573 6.14 68.94 7.03499 69.879 7.65727 71.044 7.94 72.31L7.94 72.31C8.07311 72.9962 8.67103 73.4938 9.37 73.5L11 73.5 11 75 3 75 3 81 92 81 92 75ZM35 64 25 64 25 54 35 54ZM50 75 40 75 40 54 50 54ZM65 64 55 64 55 54 65 54Z" fill="#FFF7E1"/></svg>