<svg viewBox="0 0 96 96" xmlns="http://www.w3.org/2000/svg" xmlns:xlink="http://www.w3.org/1999/xlink" id="Icons_Farmer" overflow="hidden"><path d="M37.82 67.5 58.18 67.5 59.81 51.61C55.9621 50.552 51.9906 50.0106 48 50 44.0105 50.0537 40.0432 50.6046 36.19 51.64Z" fill="#FFF7E1"/><path d="M76.8 59.6C73.1671 56.7579 69.0701 54.5656 64.69 53.12L63.21 67.5 63.76 67.5C64.7639 67.4901 65.6195 68.226 65.76 69.22L67.51 82 80 82 80 66C79.9478 63.4946 78.773 61.1451 76.8 59.6Z" fill="#FFF7E1"/><path d="M62.32 17.72C61.7 12.78 59.79 4 55.76 4 51.51 4 50.66 5.1 48.11 5.1 45.56 5.1 44.71 4 40.46 4 36.46 4 34.01 12.73 33.16 17.68 22.74 20.79 19.16 23.44 19.16 25.57 19.16 30 20.97 24.57 47.66 24.57 73.97 24.57 76.16 30 76.16 25.57 76.19 23.45 72.68 20.83 62.32 17.72Z" fill="#FFF7E1"/><path d="M47.69 27.57C42.4759 27.5378 37.2642 27.8015 32.08 28.36 32 28.9 32 29.45 32 30 32 38.8366 39.1634 46 48 46 56.8366 46 64 38.8366 64 30 64 29.48 64 29 63.92 28.45 58.5335 27.8206 53.113 27.5267 47.69 27.57Z" fill="#FFF7E1"/><path d="M17.78 87.63 17.78 53.78 20.25 53.78C23.4312 53.7745 26.0055 51.1912 26 48.01 26 48.0067 26 48.0033 26 48L26 35.28C26 34.4516 25.3284 33.78 24.5 33.78 23.6716 33.78 23 34.4516 23 35.28L23 48C23 49.5188 21.7688 50.75 20.25 50.75L20.16 50.75 20.16 35.28C20.16 34.4516 19.4884 33.78 18.66 33.78 17.8316 33.78 17.16 34.4516 17.16 35.28L17.16 50.78 14.49 50.78 14.49 35.28C14.49 34.4516 13.8184 33.78 12.99 33.78 12.1616 33.78 11.49 34.4516 11.49 35.28L11.49 50.75C10.0736 50.6155 8.99363 49.4228 9 48L9 35.28C9 34.4516 8.32843 33.78 7.5 33.78 6.67157 33.78 6 34.4516 6 35.28L6 48C6.0055 51.1734 8.57665 53.7445 11.75 53.75L13.75 53.75 13.75 87.63Z" fill="#FFF7E1"/><path d="M31.31 53.16C27.2312 54.6707 23.3577 56.6864 19.78 59.16L19.78 82 28.49 82 30.26 69.22C30.4005 68.226 31.2561 67.4901 32.26 67.5L32.81 67.5Z" fill="#FFF7E1"/><circle cx="35.54" cy="70.63" r="1" fill="#FFF7E1"/><path d="M35.54 72.13C34.7116 72.13 34.04 71.4584 34.04 70.63 34.04 69.8016 34.7116 69.13 35.54 69.13 36.3684 69.13 37.04 69.8016 37.04 70.63 37.04 71.4584 36.3684 72.13 35.54 72.13ZM35.54 70.13C35.2639 70.13 35.04 70.3539 35.04 70.63 35.0453 70.9039 35.2661 71.1247 35.54 71.13 35.8161 71.13 36.04 70.9061 36.04 70.63 36.04 70.3539 35.8161 70.13 35.54 70.13Z" fill="#FFF7E1"/><circle cx="60.54" cy="70.63" r="1" fill="#FFF7E1"/><path d="M60.54 72.13C59.7116 72.13 59.04 71.4584 59.04 70.63 59.04 69.8016 59.7116 69.13 60.54 69.13 61.3684 69.13 62.04 69.8016 62.04 70.63 62.04 71.4584 61.3684 72.13 60.54 72.13ZM60.54 70.13C60.2639 70.13 60.04 70.3539 60.04 70.63 60.0453 70.9039 60.2661 71.1247 60.54 71.13 60.8161 71.13 61.04 70.9061 61.04 70.63 61.04 70.3539 60.8161 70.13 60.54 70.13Z" fill="#FFF7E1"/></svg>