<svg viewBox="0 0 96 96" xmlns="http://www.w3.org/2000/svg" xmlns:xlink="http://www.w3.org/1999/xlink" id="Icons_Corn" overflow="hidden"><path d="M48 55.35C48.23 54.88 48.48 54.42 48.73 53.97L47.27 53.97C47.52 54.42 47.77 54.88 48 55.35Z" fill="#FFF7E1"/><path d="M56.85 30C56.735 29.4628 56.2081 29.1189 55.67 29.23 54.81 29.41 53.91 29.57 52.99 29.69 52.4377 29.7259 52.0191 30.2027 52.055 30.755 52.0909 31.3073 52.5677 31.7259 53.12 31.69L53.25 31.69C54.25 31.56 55.18 31.4 56.08 31.2 56.6205 31.0867 56.9668 30.5566 56.8535 30.0161 56.8524 30.0107 56.8512 30.0053 56.85 30Z" fill="#FFF7E1"/><path d="M56.85 34C56.735 33.4628 56.2081 33.1189 55.67 33.23 54.81 33.41 53.91 33.57 52.99 33.69 52.4377 33.7259 52.0191 34.2027 52.055 34.755 52.0909 35.3073 52.5677 35.7259 53.12 35.69L53.25 35.69C54.25 35.56 55.18 35.4 56.08 35.2 56.6205 35.0867 56.9668 34.5566 56.8535 34.0161 56.8524 34.0107 56.8512 34.0053 56.85 34Z" fill="#FFF7E1"/><path d="M56.85 38C56.735 37.4628 56.2081 37.1189 55.67 37.23 54.81 37.41 53.91 37.57 52.99 37.69 52.4377 37.7259 52.0191 38.2027 52.055 38.755 52.0909 39.3073 52.5677 39.7259 53.12 39.69L53.25 39.69C54.25 39.56 55.18 39.4 56.08 39.2 56.6205 39.0867 56.9668 38.5566 56.8535 38.0161 56.8524 38.0107 56.8512 38.0053 56.85 38Z" fill="#FFF7E1"/><path d="M56.85 26C56.735 25.4628 56.2081 25.1189 55.67 25.23 54.81 25.41 53.91 25.57 52.99 25.69 52.4377 25.7259 52.0191 26.2027 52.055 26.755 52.0909 27.3073 52.5677 27.7259 53.12 27.69L53.25 27.69C54.25 27.56 55.18 27.4 56.08 27.2 56.6205 27.0867 56.9668 26.5566 56.8535 26.0161 56.8524 26.0107 56.8512 26.0053 56.85 26Z" fill="#FFF7E1"/><path d="M52.13 46.8C52.1973 47.2786 52.5971 47.6405 53.08 47.66 53.78 46.84 54.52 46.04 55.29 45.29 54.55 45.44 53.78 45.57 52.99 45.68 52.4437 45.7526 52.0591 46.2535 52.13 46.8Z" fill="#FFF7E1"/><path d="M50.06 51.71C50.15 51.56 50.25 51.42 50.35 51.27 50.391 51.1614 50.4114 51.0461 50.41 50.93 50.41 50.3777 49.9623 49.93 49.41 49.93 48.51 49.93 47.58 49.93 46.68 49.93 46.1277 49.93 45.68 50.3777 45.68 50.93 45.6821 51.0662 45.7057 51.2012 45.75 51.33L45.98 51.67C46.1572 51.8513 46.3967 51.9586 46.65 51.97L48 52 49.44 52C49.6743 51.9793 49.8939 51.8766 50.06 51.71Z" fill="#FFF7E1"/><path d="M56.85 42C56.735 41.4628 56.2081 41.1189 55.67 41.23 54.81 41.41 53.91 41.57 52.99 41.69 52.4377 41.7259 52.0191 42.2027 52.055 42.755 52.0909 43.3073 52.5677 43.7259 53.12 43.69L53.25 43.69C54.25 43.56 55.18 43.4 56.08 43.2 56.6205 43.0867 56.9668 42.5566 56.8535 42.0161 56.8524 42.0107 56.8512 42.0053 56.85 42Z" fill="#FFF7E1"/><path d="M43 25.68C42.08 25.56 41.18 25.41 40.33 25.22 39.7777 25.104 39.236 25.4577 39.12 26.01 39.004 26.5623 39.3577 27.104 39.91 27.22 40.81 27.41 41.77 27.58 42.74 27.7L42.87 27.7C43.4223 27.7359 43.8991 27.3173 43.935 26.765 43.9709 26.2127 43.5523 25.7359 43 25.7Z" fill="#FFF7E1"/><path d="M43 33.68C42.08 33.56 41.18 33.41 40.33 33.22 39.7777 33.104 39.236 33.4577 39.12 34.01 39.004 34.5623 39.3577 35.104 39.91 35.22 40.81 35.41 41.77 35.58 42.74 35.7L42.87 35.7C43.4223 35.7359 43.8991 35.3173 43.935 34.765 43.9709 34.2127 43.5523 33.7359 43 33.7Z" fill="#FFF7E1"/><path d="M43 41.68C42.08 41.56 41.18 41.41 40.33 41.22 39.7777 41.104 39.236 41.4577 39.12 42.01 39.004 42.5623 39.3577 43.104 39.91 43.22 40.81 43.41 41.77 43.58 42.74 43.7L42.87 43.7C43.4223 43.7359 43.8991 43.3173 43.935 42.765 43.9709 42.2127 43.5523 41.7359 43 41.7Z" fill="#FFF7E1"/><path d="M43 37.68C42.08 37.56 41.18 37.41 40.33 37.22 39.7777 37.104 39.236 37.4577 39.12 38.01 39.004 38.5623 39.3577 39.104 39.91 39.22 40.81 39.41 41.77 39.58 42.74 39.7L42.87 39.7C43.4223 39.7359 43.8991 39.3173 43.935 38.765 43.9709 38.2127 43.5523 37.7359 43 37.7Z" fill="#FFF7E1"/><path d="M43 29.68C42.08 29.56 41.18 29.41 40.33 29.22 39.7777 29.104 39.236 29.4577 39.12 30.01 39.004 30.5623 39.3577 31.104 39.91 31.22 40.81 31.41 41.77 31.58 42.74 31.7L42.87 31.7C43.4223 31.7359 43.8991 31.3173 43.935 30.765 43.9709 30.2127 43.5523 29.7359 43 29.7Z" fill="#FFF7E1"/><path d="M37.5 41.52C37.6896 41.0065 37.4311 40.436 36.92 40.24 36.1636 39.96 35.4283 39.6258 34.72 39.24 34.79 38.69 34.88 38.15 34.96 37.6 35.36 37.79 35.78 37.96 36.22 38.13 36.3322 38.1707 36.4507 38.191 36.57 38.19 37.1222 38.1805 37.5622 37.7252 37.5527 37.173 37.5457 36.7687 37.2961 36.4085 36.92 36.26 36.3708 36.0527 35.8334 35.8157 35.31 35.55 35.41 34.99 35.53 34.44 35.64 33.89L36.22 34.13C36.3322 34.1707 36.4507 34.191 36.57 34.19 37.1222 34.1805 37.5622 33.7252 37.5527 33.173 37.5457 32.7687 37.2961 32.4085 36.92 32.26 36.63 32.15 36.36 32.03 36.09 31.91 36.23 31.33 36.38 30.75 36.53 30.19L36.53 30.19C36.9448 30.1872 37.3148 29.9286 37.46 29.54 37.6197 29.0838 37.4303 28.5787 37.01 28.34 37.6155 26.3594 38.3367 24.4161 39.17 22.52 39.2748 22.8605 39.5529 23.1196 39.9 23.2 40.8 23.39 41.76 23.56 42.73 23.68L42.86 23.68C43.4123 23.7159 43.8891 23.2973 43.925 22.745 43.9609 22.1927 43.5423 21.7159 42.99 21.68 42.07 21.56 41.17 21.41 40.32 21.22 40.1133 21.1819 39.8999 21.2099 39.71 21.3 40.03 20.63 40.36 19.97 40.71 19.3 41.37 19.42 42.04 19.53 42.71 19.62L42.84 19.62C43.3923 19.6559 43.8691 19.2373 43.905 18.685 43.9409 18.1327 43.5223 17.6559 42.97 17.62 42.56 17.57 42.16 17.5 41.76 17.44 42.17 16.78 42.6 16.17 43.04 15.57 43.5185 15.526 43.8707 15.1025 43.8267 14.624 43.825 14.6059 43.8228 14.5879 43.82 14.57 44.3 13.99 44.82 13.43 45.29 12.92 46.8032 11.5817 49.0768 11.5817 50.59 12.92 51.1 13.43 51.59 13.99 52.08 14.58 52.0751 14.6299 52.0751 14.6801 52.08 14.73 52.1403 15.1393 52.4464 15.4693 52.85 15.56 53.29 16.15 53.72 16.77 54.13 17.43L53 17.68C52.4477 17.7159 52.0291 18.1927 52.065 18.745 52.1009 19.2973 52.5777 19.7159 53.13 19.68L53.26 19.68C53.94 19.59 54.61 19.48 55.26 19.36 55.61 19.98 55.94 20.64 56.26 21.31 56.08 21.2221 55.8757 21.1974 55.68 21.24 54.82 21.42 53.92 21.58 53 21.7 52.4477 21.7359 52.0291 22.2127 52.065 22.765 52.1009 23.3173 52.5777 23.7359 53.13 23.7L53.26 23.7C54.26 23.57 55.19 23.41 56.09 23.21 56.4261 23.132 56.6982 22.8864 56.81 22.56 57.652 24.4355 58.3833 26.3588 59 28.32 58.5873 28.565 58.4068 29.0686 58.57 29.52 58.7152 29.9086 59.0852 30.1672 59.5 30.17L59.5 30.17C59.66 30.74 59.8 31.32 59.94 31.9 59.67 32.01 59.42 32.13 59.13 32.24 58.6108 32.4284 58.3427 33.0019 58.531 33.5211 58.6757 33.9197 59.056 34.1838 59.48 34.18 59.5999 34.1778 59.7185 34.1541 59.83 34.11 60.03 34.04 60.2 33.95 60.39 33.88 60.51 34.4333 60.62 34.9833 60.72 35.53 60.2035 35.7958 59.6727 36.0328 59.13 36.24 58.6108 36.4284 58.3427 37.0019 58.531 37.5211 58.6757 37.9197 59.056 38.1838 59.48 38.18 59.5999 38.1778 59.7185 38.1541 59.83 38.11 60.27 37.95 60.68 37.77 61.07 37.59 61.16 38.13 61.24 38.68 61.31 39.23 60.6096 39.6178 59.8808 39.9521 59.13 40.23 58.6164 40.433 58.3646 41.0139 58.5676 41.5276 58.6692 41.7847 58.8728 41.9884 59.13 42.09 61.0522 40.6895 63.113 39.4899 65.28 38.51 63.6 26.42 59.4 16.07 53.47 10.15 50.3932 7.26697 45.6068 7.26697 42.53 10.15 36.6 16.07 32.4 26.42 30.77 38.51 32.9321 39.4973 34.9892 40.7001 36.91 42.1 37.1874 42.011 37.4063 41.7958 37.5 41.52Z" fill="#FFF7E1"/><path d="M49.38 46C48.48 46 47.55 46 46.65 46 46.0977 46 45.65 46.4477 45.65 47 45.65 47.5523 46.0977 48 46.65 48L48 48 49.44 48C49.9923 48 50.44 47.5523 50.44 47 50.441 46.4477 49.9941 45.9992 49.4418 45.9982 49.4212 45.9982 49.4006 45.9988 49.38 46Z" fill="#FFF7E1"/><path d="M40.7 45.29C41.47 46.05 42.21 46.84 42.92 47.67 43.4723 47.7004 43.9446 47.2773 43.975 46.725 44.0054 46.1727 43.5823 45.7004 43.03 45.67 42.23 45.58 41.45 45.44 40.7 45.29Z" fill="#FFF7E1"/><path d="M49.38 42C48.48 42 47.55 42 46.65 42 46.0977 41.9807 45.6343 42.4127 45.615 42.965 45.5957 43.5173 46.0277 43.9807 46.58 44L48 44 49.44 44C49.9923 43.9834 50.4266 43.5223 50.41 42.97 50.3934 42.4177 49.9323 41.9834 49.38 42Z" fill="#FFF7E1"/><path d="M49.38 22C48.48 22 47.55 22 46.65 22 46.0977 21.9807 45.6343 22.4127 45.615 22.965 45.5957 23.5173 46.0277 23.9807 46.58 24L48 24 49.44 24C49.9923 23.9834 50.4266 23.5223 50.41 22.97 50.3934 22.4177 49.9323 21.9834 49.38 22Z" fill="#FFF7E1"/><path d="M49.38 18C48.48 18 47.55 18 46.65 18 46.0977 17.9807 45.6343 18.4127 45.615 18.965 45.5957 19.5173 46.0277 19.9807 46.58 20L48 20 49.44 20C49.9923 20 50.44 19.5523 50.44 19 50.441 18.4477 49.9941 17.9992 49.4418 17.9982 49.4212 17.9982 49.4006 17.9988 49.38 18Z" fill="#FFF7E1"/><path d="M49.41 14 49.41 14C48.51 14 47.58 14 46.68 14 46.1277 14 45.68 14.4477 45.68 15 45.68 15.5523 46.1277 16 46.68 16L48 16 49.44 16C49.9923 16 50.44 15.5523 50.44 15 50.4402 14.4477 49.9927 13.9998 49.4404 13.9995 49.4303 13.9995 49.4201 13.9997 49.41 14Z" fill="#FFF7E1"/><path d="M49.38 26C48.48 26 47.55 26 46.65 26 46.0977 26 45.65 26.4477 45.65 27 45.65 27.5523 46.0977 28 46.65 28L48 28 49.44 28C49.9923 28 50.44 27.5523 50.44 27 50.441 26.4477 49.9941 25.9992 49.4418 25.9982 49.4212 25.9982 49.4006 25.9988 49.38 26Z" fill="#FFF7E1"/><path d="M49.38 30C48.48 30 47.55 30 46.65 30 46.0977 29.9807 45.6343 30.4127 45.615 30.965 45.5957 31.5173 46.0277 31.9807 46.58 32L48 32 49.44 32C49.9923 31.9834 50.4266 31.5223 50.41 30.97 50.3934 30.4177 49.9323 29.9834 49.38 30Z" fill="#FFF7E1"/><path d="M49.38 38C48.48 38 47.55 38 46.65 38 46.0977 37.9807 45.6343 38.4127 45.615 38.965 45.5957 39.5173 46.0277 39.9807 46.58 40L48 40 49.44 40C49.9923 40 50.44 39.5523 50.44 39 50.441 38.4477 49.9941 37.9992 49.4418 37.9982 49.4212 37.9982 49.4006 37.9988 49.38 38Z" fill="#FFF7E1"/><path d="M49.38 34C48.48 34 47.55 34 46.65 34 46.0977 33.9807 45.6343 34.4127 45.615 34.965 45.5957 35.5173 46.0277 35.9807 46.58 36L48 36 49.44 36C49.9923 35.9834 50.4266 35.5223 50.41 34.97 50.3934 34.4177 49.9323 33.9834 49.38 34Z" fill="#FFF7E1"/><path d="M73.44 40C59.59 43 49.84 54.07 48 69.4 46.15 54.13 36.38 43 22.56 40 17.1 38.74 11.64 38.74 8 42.38 8 42.38 23.78 42.88 23.78 61.49 23.78 72.26 30.78 79.38 38.34 80.6 39.2281 80.7557 40.1283 80.8326 41.03 80.83L41.72 80.83C42.0594 84.2983 45.1462 86.8348 48.6146 86.4954 51.6135 86.2019 53.9865 83.829 54.28 80.83L55 80.83C55.9017 80.8326 56.8018 80.7557 57.69 80.6 65.3 79.38 72.25 72.26 72.25 61.49 72.22 42.88 88 42.38 88 42.38 84.36 38.74 78.9 38.74 73.44 40Z" fill="#FFF7E1"/></svg>