<svg viewBox="0 0 96 96" xmlns="http://www.w3.org/2000/svg" xmlns:xlink="http://www.w3.org/1999/xlink" id="Icons_Skull" overflow="hidden"><circle cx="37" cy="50" r="8" fill="#FFF7E1"/><circle cx="59" cy="50" r="8" fill="#FFF7E1"/><path d="M52.13 63.88C52.7154 64.8555 52.3992 66.1209 51.4237 66.7064 51.1053 66.8974 50.7413 66.9989 50.37 67L45.63 67C44.4923 66.9965 43.5729 66.0714 43.5764 64.9337 43.5775 64.5624 43.679 64.1983 43.87 63.88L46.24 59.94C46.8205 58.968 48.0791 58.6506 49.0511 59.2311 49.3425 59.4051 49.586 59.6487 49.76 59.94Z" fill="#FFF7E1"/><path d="M48 9C30.91 9 17 24 17 42.5 17 49.83 19.1 55.73 24 62.04L24 67.04C23.9244 71.6625 27.4006 75.5731 32 76.04L32 84.04C32 85.6969 33.3431 87.04 35 87.04L61 87.04C62.6569 87.04 64 85.6969 64 84.04L64 76C68.5994 75.5331 72.0756 71.6225 72 67L72 62C76.9 55.69 79 49.79 79 42.46 79 24 65.09 9 48 9ZM66.67 59.11C66.2365 59.6445 65.9999 60.3118 66 61L66 67C66.0391 68.6177 64.7594 69.9609 63.1417 70 63.0945 70.0011 63.0472 70.0011 63 70L61 70C59.3431 70 58 71.3431 58 73L58 81 54 81 54 75 50 75 50 81 46 81 46 75 42 75 42 81 38 81 38 73C38 71.3431 36.6569 70 35 70L33 70C31.3823 70.0391 30.0391 68.7594 30 67.1417 29.9989 67.0945 29.9989 67.0472 30 67L30 61C30.0001 60.3118 29.7635 59.6445 29.33 59.11 24.83 53.56 23 48.75 23 42.5 23 27.34 34.21 15 48 15 61.79 15 73 27.34 73 42.5 73 48.75 71.17 53.56 66.67 59.11Z" fill="#FFF7E1"/></svg>